<svg xmlns="http://www.w3.org/2000/svg" viewBox="0 0 256 256" width="256" height="256" role="img" aria-label="동딩"><defs><clipPath id="d"><circle cx="128" cy="128" r="128"></circle></clipPath><linearGradient id="bg" x1="0" y1="0" x2="0" y2="1"><stop offset="0" stop-color="#7d8ea8"></stop><stop offset="1" stop-color="#5d6b8a"></stop></linearGradient><linearGradient id="face" x1="0" y1="0" x2="0" y2="1"><stop offset="0" stop-color="#fbf8f0"></stop><stop offset="1" stop-color="#f1e8d6"></stop></linearGradient></defs><g clip-path="url(#d)"><rect width="256" height="256" fill="url(#bg)"></rect><ellipse cx="128" cy="298" rx="106" ry="86" fill="#3f3b34"></ellipse><ellipse cx="128" cy="110" rx="102" ry="88" fill="#4a3a2a"></ellipse><circle cx="38" cy="158" r="15" fill="#f2e9d7"></circle><circle cx="218" cy="158" r="15" fill="#f2e9d7"></circle><rect x="34" y="30" width="188" height="196" rx="88" fill="url(#face)"></rect><path d="M26 146C26 54 74 24 128 24C182 24 230 54 230 146C218 122 206 92 188 104C172 115 164 94 148 104C132 114 124 92 108 102C92 111 82 92 66 104C48 116 38 122 26 146Z" fill="#4a3a2a"></path><ellipse cx="70" cy="188" rx="15" ry="9" fill="#d9927a" opacity=".42"></ellipse><ellipse cx="186" cy="188" rx="15" ry="9" fill="#d9927a" opacity=".42"></ellipse><circle cx="94" cy="163" r="13" fill="#38352c"></circle><circle cx="162" cy="163" r="13" fill="#38352c"></circle><circle cx="98.8" cy="157.6" r="4.3" fill="#fbf8f0" opacity=".92"></circle><circle cx="166.8" cy="157.6" r="4.3" fill="#fbf8f0" opacity=".92"></circle><path d="M115 191q13 13 26 0" fill="none" stroke="#38352c" stroke-width="6" stroke-linecap="round"></path></g></svg>
